<?xml version="1.0" standalone="no"?>
<!DOCTYPE svg PUBLIC "-//W3C//DTD SVG 20010904//EN"
 "http://www.w3.org/TR/2001/REC-SVG-20010904/DTD/svg10.dtd">
<svg version="1.0" xmlns="http://www.w3.org/2000/svg"
 width="260.000000pt" height="260.000000pt" viewBox="0 0 260.000000 260.000000"
 preserveAspectRatio="xMidYMid meet">
<metadata>
Created by potrace 1.14, written by Peter Selinger 2001-2017
</metadata>
<g transform="translate(0.000000,260.000000) scale(0.100000,-0.100000)"
fill="#000000" stroke="none">
<path d="M484 2107 c-3 -8 -4 -43 -2 -78 3 -58 5 -64 26 -67 l22 -3 0 -369 0
-369 -22 -3 c-21 -3 -23 -9 -26 -72 -2 -49 1 -72 10 -77 17 -11 1599 -11 1616
0 9 5 12 28 10 77 -3 63 -5 69 -25 72 l-23 3 0 369 0 369 23 3 c21 3 22 8 22
78 l0 75 -813 3 c-678 2 -813 0 -818 -11z m1572 -46 c6 0 10 -11 9 -23 l-2
-23 -764 0 c-672 0 -764 2 -765 15 0 8 3 20 7 25 5 7 263 10 756 9 411 -1 753
-2 759 -3z m-46 -471 l0 -370 -50 0 -50 0 0 44 c0 25 -6 48 -14 55 -18 15
-184 13 -193 -2 -3 -5 -7 -28 -7 -51 l-2 -41 -367 -2 c-275 -1 -367 1 -368 10
0 7 -2 26 -2 42 -3 54 -7 55 -162 55 -79 0 -146 -4 -149 -9 -3 -5 -7 -29 -7
-55 -2 -41 -5 -46 -26 -46 -23 0 -23 2 -23 98 0 53 -1 216 -1 362 -1 146 -1
268 0 273 1 4 321 7 711 7 l710 0 0 -370z m-1127 -319 c11 -1 17 -9 17 -25 0
-24 0 -24 -102 -23 -98 2 -103 3 -106 24 -3 18 2 22 30 25 28 3 97 2 161 -1z
m973 -19 c-2 -25 -16 -32 -63 -32 -39 0 -43 2 -43 24 0 22 5 25 43 28 54 4 65
1 63 -20z m210 -102 c0 -8 -3 -19 -7 -25 -5 -7 -271 -10 -765 -10 l-758 1 1
22 c0 12 1 23 2 25 1 2 344 3 764 3 670 -1 762 -3 763 -16z"/>
<path d="M1333 1898 c-4 -7 -8 -89 -8 -183 l0 -170 -25 -3 -25 -3 -1 126 c-1
69 -4 128 -7 131 -9 9 -135 9 -144 0 -5 -4 -9 -56 -10 -114 -1 -59 -2 -115 -2
-124 -1 -12 -9 -18 -25 -18 -24 0 -24 1 -23 93 0 51 -3 98 -7 105 -4 7 -33 12
-76 12 -53 0 -69 -4 -74 -16 -3 -9 -6 -56 -6 -105 l0 -89 -44 0 c-25 0 -48 -5
-51 -10 -11 -18 -11 -122 0 -137 9 -12 83 -14 495 -14 266 1 488 5 493 10 11
11 15 104 5 130 -6 17 -16 21 -53 21 -49 0 -50 1 -45 87 3 58 -13 73 -78 73
-80 0 -85 -5 -85 -89 -1 -69 -1 -71 -26 -71 l-26 0 1 168 c0 92 -3 175 -8 185
-7 13 -22 17 -73 17 -40 0 -67 -5 -72 -12z m97 -200 l0 -158 -25 0 -25 0 0
158 0 157 25 0 25 0 0 -157z m-210 -53 l0 -105 -25 0 -25 0 0 105 0 105 25 0
25 0 0 -105z m-217 46 c4 -1 7 -35 7 -76 0 -73 -1 -75 -25 -75 -27 0 -27 1
-27 75 0 80 1 83 20 80 9 -2 20 -4 25 -4z m638 -67 c1 -8 1 -25 1 -39 0 -43
-1 -45 -27 -45 -23 0 -25 3 -25 48 0 27 3 51 6 54 9 10 44 -4 45 -18z m97
-143 c8 -1 12 -10 10 -23 l-3 -23 -445 0 c-427 0 -445 1 -448 19 -2 10 1 21 6
25 8 5 824 7 880 2z"/>
<path d="M880 999 c-56 -23 -88 -77 -81 -139 3 -27 19 -62 33 -71 4 -3 -10
-20 -32 -38 -39 -32 -67 -73 -76 -114 -8 -32 -7 -134 1 -146 9 -16 1141 -15
1151 1 4 6 7 40 6 75 -1 81 -28 141 -81 183 -23 19 -37 36 -33 39 35 23 42
110 12 158 -68 112 -242 60 -242 -72 0 -19 8 -47 17 -63 l18 -30 -44 -43 -44
-44 -46 46 c-46 45 -46 46 -27 68 42 52 14 152 -52 186 -114 59 -235 -69 -175
-186 15 -29 15 -30 -27 -72 l-43 -42 -44 44 c-44 43 -44 44 -27 71 22 38 20
98 -4 137 -33 55 -99 76 -160 52z m113 -82 c14 -17 18 -33 13 -51 -16 -65 -82
-86 -130 -41 -31 29 -33 63 -6 98 34 43 89 41 123 -6z m365 6 c60 -66 -32
-159 -105 -108 -30 21 -39 69 -18 101 32 49 82 52 123 7z m375 -5 c55 -73 -53
-158 -118 -93 -29 28 -32 61 -9 93 33 47 92 47 127 0z m-714 -205 c44 -33 63
-68 66 -122 2 -28 1 -52 -3 -52 -22 -4 -289 -5 -299 -1 -17 5 -16 57 1 105 33
92 156 128 235 70z m376 -4 c41 -29 56 -58 61 -124 l4 -51 -157 1 -158 0 -2
30 c-6 79 41 150 114 171 46 13 92 4 138 -27z m364 4 c46 -35 63 -67 65 -124
l1 -54 -155 0 -155 0 1 51 c2 81 43 132 122 153 34 10 88 -2 121 -26z"/>
</g>
</svg>
